<mxfile host="65bd71144e" pages="2">
    <diagram name="第 1 页" id="6_TRvgF9ELWJ9JNikfU1">
        <mxGraphModel dx="917" dy="813" grid="1" gridSize="10" guides="1" tooltips="1" connect="1" arrows="1" fold="1" page="1" pageScale="1" pageWidth="827" pageHeight="1169" math="0" shadow="0">
            <root>
                <mxCell id="0"/>
                <mxCell id="1" parent="0"/>
                <mxCell id="JT1coln3xfAVYC6KFqxX-1" value="Matrix" style="rounded=1;whiteSpace=wrap;html=1;" parent="1" vertex="1">
                    <mxGeometry x="330" y="70" width="90" height="40" as="geometry"/>
                </mxCell>
                <mxCell id="JT1coln3xfAVYC6KFqxX-2" value="" style="endArrow=classic;html=1;rounded=0;exitX=0.5;exitY=1;exitDx=0;exitDy=0;fillColor=#f8cecc;strokeColor=#b85450;" parent="1" source="JT1coln3xfAVYC6KFqxX-1" edge="1">
                    <mxGeometry width="50" height="50" relative="1" as="geometry">
                        <mxPoint x="410" y="230" as="sourcePoint"/>
                        <mxPoint x="375" y="170" as="targetPoint"/>
                    </mxGeometry>
                </mxCell>
                <mxCell id="JT1coln3xfAVYC6KFqxX-3" value="input" style="edgeLabel;html=1;align=center;verticalAlign=middle;resizable=0;points=[];" parent="JT1coln3xfAVYC6KFqxX-2" vertex="1" connectable="0">
                    <mxGeometry x="-0.2952" y="-1" relative="1" as="geometry">
                        <mxPoint as="offset"/>
                    </mxGeometry>
                </mxCell>
                <mxCell id="JT1coln3xfAVYC6KFqxX-4" value="n" style="rounded=0;whiteSpace=wrap;html=1;" parent="1" vertex="1">
                    <mxGeometry x="460" y="170" width="30" height="30" as="geometry"/>
                </mxCell>
                <mxCell id="JT1coln3xfAVYC6KFqxX-5" value="" style="endArrow=classic;html=1;rounded=0;exitX=0;exitY=0.5;exitDx=0;exitDy=0;fillColor=#f8cecc;strokeColor=#b85450;" parent="1" source="JT1coln3xfAVYC6KFqxX-4" edge="1">
                    <mxGeometry width="50" height="50" relative="1" as="geometry">
                        <mxPoint x="380" y="170" as="sourcePoint"/>
                        <mxPoint x="400" y="185" as="targetPoint"/>
                    </mxGeometry>
                </mxCell>
                <mxCell id="JT1coln3xfAVYC6KFqxX-6" value="input" style="edgeLabel;html=1;align=center;verticalAlign=middle;resizable=0;points=[];" parent="JT1coln3xfAVYC6KFqxX-5" vertex="1" connectable="0">
                    <mxGeometry x="-0.046" relative="1" as="geometry">
                        <mxPoint as="offset"/>
                    </mxGeometry>
                </mxCell>
                <mxCell id="JT1coln3xfAVYC6KFqxX-7" value="进入&lt;br&gt;行遍历" style="rounded=0;whiteSpace=wrap;html=1;" parent="1" vertex="1">
                    <mxGeometry x="340" y="170" width="60" height="30" as="geometry"/>
                </mxCell>
                <mxCell id="JT1coln3xfAVYC6KFqxX-8" value="outDegree" style="rounded=0;whiteSpace=wrap;html=1;" parent="1" vertex="1">
                    <mxGeometry x="330" y="260" width="80" height="40" as="geometry"/>
                </mxCell>
                <mxCell id="JT1coln3xfAVYC6KFqxX-9" value="" style="endArrow=classic;html=1;rounded=0;exitX=0.5;exitY=1;exitDx=0;exitDy=0;entryX=0.5;entryY=0;entryDx=0;entryDy=0;fillColor=#dae8fc;strokeColor=#6c8ebf;" parent="1" source="JT1coln3xfAVYC6KFqxX-7" target="JT1coln3xfAVYC6KFqxX-8" edge="1">
                    <mxGeometry width="50" height="50" relative="1" as="geometry">
                        <mxPoint x="410" y="280" as="sourcePoint"/>
                        <mxPoint x="460" y="230" as="targetPoint"/>
                    </mxGeometry>
                </mxCell>
                <mxCell id="JT1coln3xfAVYC6KFqxX-10" value="计数器&lt;br&gt;统计出度" style="edgeLabel;html=1;align=center;verticalAlign=middle;resizable=0;points=[];" parent="JT1coln3xfAVYC6KFqxX-9" vertex="1" connectable="0">
                    <mxGeometry x="-0.1333" relative="1" as="geometry">
                        <mxPoint as="offset"/>
                    </mxGeometry>
                </mxCell>
                <mxCell id="JT1coln3xfAVYC6KFqxX-11" value="outDegree&lt;br&gt;ZeroCount" style="rounded=0;whiteSpace=wrap;html=1;" parent="1" vertex="1">
                    <mxGeometry x="330" y="460" width="80" height="40" as="geometry"/>
                </mxCell>
                <mxCell id="JT1coln3xfAVYC6KFqxX-12" value="出度是否为0" style="rhombus;whiteSpace=wrap;html=1;" parent="1" vertex="1">
                    <mxGeometry x="320" y="350" width="100" height="60" as="geometry"/>
                </mxCell>
                <mxCell id="JT1coln3xfAVYC6KFqxX-13" value="" style="endArrow=classic;html=1;rounded=0;exitX=0.5;exitY=1;exitDx=0;exitDy=0;entryX=0.5;entryY=0;entryDx=0;entryDy=0;fillColor=#dae8fc;strokeColor=#6c8ebf;" parent="1" source="JT1coln3xfAVYC6KFqxX-8" target="JT1coln3xfAVYC6KFqxX-12" edge="1">
                    <mxGeometry width="50" height="50" relative="1" as="geometry">
                        <mxPoint x="410" y="400" as="sourcePoint"/>
                        <mxPoint x="460" y="350" as="targetPoint"/>
                    </mxGeometry>
                </mxCell>
                <mxCell id="JT1coln3xfAVYC6KFqxX-14" value="行遍历结束" style="edgeLabel;html=1;align=center;verticalAlign=middle;resizable=0;points=[];" parent="JT1coln3xfAVYC6KFqxX-13" vertex="1" connectable="0">
                    <mxGeometry x="-0.0743" y="1" relative="1" as="geometry">
                        <mxPoint as="offset"/>
                    </mxGeometry>
                </mxCell>
                <mxCell id="JT1coln3xfAVYC6KFqxX-15" value="" style="endArrow=classic;html=1;rounded=0;exitX=0.5;exitY=1;exitDx=0;exitDy=0;entryX=0.5;entryY=0;entryDx=0;entryDy=0;fillColor=#dae8fc;strokeColor=#6c8ebf;" parent="1" source="JT1coln3xfAVYC6KFqxX-12" target="JT1coln3xfAVYC6KFqxX-11" edge="1">
                    <mxGeometry width="50" height="50" relative="1" as="geometry">
                        <mxPoint x="410" y="400" as="sourcePoint"/>
                        <mxPoint x="460" y="350" as="targetPoint"/>
                    </mxGeometry>
                </mxCell>
                <mxCell id="JT1coln3xfAVYC6KFqxX-16" value="为0：&lt;br&gt;计数器统计" style="edgeLabel;html=1;align=center;verticalAlign=middle;resizable=0;points=[];" parent="JT1coln3xfAVYC6KFqxX-15" vertex="1" connectable="0">
                    <mxGeometry x="-0.2229" y="1" relative="1" as="geometry">
                        <mxPoint as="offset"/>
                    </mxGeometry>
                </mxCell>
                <mxCell id="JT1coln3xfAVYC6KFqxX-17" value="" style="endArrow=classic;html=1;rounded=0;exitX=0;exitY=0.5;exitDx=0;exitDy=0;entryX=0;entryY=0.5;entryDx=0;entryDy=0;fillColor=#dae8fc;strokeColor=#6c8ebf;" parent="1" source="JT1coln3xfAVYC6KFqxX-12" target="JT1coln3xfAVYC6KFqxX-7" edge="1">
                    <mxGeometry width="50" height="50" relative="1" as="geometry">
                        <mxPoint x="410" y="230" as="sourcePoint"/>
                        <mxPoint x="460" y="180" as="targetPoint"/>
                        <Array as="points">
                            <mxPoint x="230" y="380"/>
                            <mxPoint x="230" y="185"/>
                        </Array>
                    </mxGeometry>
                </mxCell>
                <mxCell id="JT1coln3xfAVYC6KFqxX-18" value="不为0且未完全遍历：&lt;br&gt;继续遍历下一行" style="edgeLabel;html=1;align=center;verticalAlign=middle;resizable=0;points=[];" parent="JT1coln3xfAVYC6KFqxX-17" vertex="1" connectable="0">
                    <mxGeometry x="-0.132" relative="1" as="geometry">
                        <mxPoint as="offset"/>
                    </mxGeometry>
                </mxCell>
                <mxCell id="JT1coln3xfAVYC6KFqxX-19" value="outDegree&lt;br style=&quot;border-color: var(--border-color);&quot;&gt;ZeroCount" style="rounded=1;whiteSpace=wrap;html=1;" parent="1" vertex="1">
                    <mxGeometry x="330" y="550" width="80" height="40" as="geometry"/>
                </mxCell>
                <mxCell id="JT1coln3xfAVYC6KFqxX-20" value="" style="endArrow=classic;html=1;rounded=0;exitX=0.5;exitY=1;exitDx=0;exitDy=0;entryX=0.5;entryY=0;entryDx=0;entryDy=0;fillColor=#f8cecc;strokeColor=#b85450;" parent="1" source="JT1coln3xfAVYC6KFqxX-11" target="JT1coln3xfAVYC6KFqxX-19" edge="1">
                    <mxGeometry width="50" height="50" relative="1" as="geometry">
                        <mxPoint x="410" y="510" as="sourcePoint"/>
                        <mxPoint x="460" y="460" as="targetPoint"/>
                    </mxGeometry>
                </mxCell>
                <mxCell id="JT1coln3xfAVYC6KFqxX-21" value="遍历结束，&lt;br&gt;返回统计值" style="edgeLabel;html=1;align=center;verticalAlign=middle;resizable=0;points=[];" parent="JT1coln3xfAVYC6KFqxX-20" vertex="1" connectable="0">
                    <mxGeometry x="-0.1038" relative="1" as="geometry">
                        <mxPoint as="offset"/>
                    </mxGeometry>
                </mxCell>
            </root>
        </mxGraphModel>
    </diagram>
    <diagram id="I6TrE-8YOAdrFA49dcmn" name="第 2 页">
        <mxGraphModel dx="917" dy="1982" grid="1" gridSize="10" guides="1" tooltips="1" connect="1" arrows="1" fold="1" page="1" pageScale="1" pageWidth="827" pageHeight="1169" math="0" shadow="0">
            <root>
                <mxCell id="0"/>
                <mxCell id="1" parent="0"/>
                <mxCell id="2Z_EOnFNv88t0tjs4hW1-1" value="edges" style="rounded=1;whiteSpace=wrap;html=1;" parent="1" vertex="1">
                    <mxGeometry x="390" y="-1050" width="84" height="50" as="geometry"/>
                </mxCell>
                <mxCell id="2Z_EOnFNv88t0tjs4hW1-2" value="G" style="rounded=1;whiteSpace=wrap;html=1;" parent="1" vertex="1">
                    <mxGeometry x="260" y="-1140" width="60" height="40" as="geometry"/>
                </mxCell>
                <mxCell id="2Z_EOnFNv88t0tjs4hW1-3" value="G" style="rounded=0;whiteSpace=wrap;html=1;" parent="1" vertex="1">
                    <mxGeometry x="260" y="-1050" width="60" height="40" as="geometry"/>
                </mxCell>
                <mxCell id="2Z_EOnFNv88t0tjs4hW1-4" value="" style="endArrow=classic;html=1;rounded=0;exitX=0.5;exitY=1;exitDx=0;exitDy=0;entryX=0.5;entryY=0;entryDx=0;entryDy=0;fillColor=#dae8fc;strokeColor=#6c8ebf;" parent="1" source="2Z_EOnFNv88t0tjs4hW1-2" target="2Z_EOnFNv88t0tjs4hW1-3" edge="1">
                    <mxGeometry width="50" height="50" relative="1" as="geometry">
                        <mxPoint x="450" y="-830" as="sourcePoint"/>
                        <mxPoint x="500" y="-880" as="targetPoint"/>
                    </mxGeometry>
                </mxCell>
                <mxCell id="2Z_EOnFNv88t0tjs4hW1-5" value="init" style="edgeLabel;html=1;align=center;verticalAlign=middle;resizable=0;points=[];" parent="2Z_EOnFNv88t0tjs4hW1-4" vertex="1" connectable="0">
                    <mxGeometry x="-0.0111" relative="1" as="geometry">
                        <mxPoint as="offset"/>
                    </mxGeometry>
                </mxCell>
                <mxCell id="2Z_EOnFNv88t0tjs4hW1-7" value="" style="endArrow=classic;html=1;rounded=0;exitX=0.5;exitY=1;exitDx=0;exitDy=0;entryX=1;entryY=0.5;entryDx=0;entryDy=0;fillColor=#f8cecc;strokeColor=#b85450;" parent="1" source="2Z_EOnFNv88t0tjs4hW1-1" edge="1">
                    <mxGeometry width="50" height="50" relative="1" as="geometry">
                        <mxPoint x="422" y="-1040" as="sourcePoint"/>
                        <mxPoint x="310" y="-980" as="targetPoint"/>
                        <Array as="points">
                            <mxPoint x="432" y="-980"/>
                        </Array>
                    </mxGeometry>
                </mxCell>
                <mxCell id="2Z_EOnFNv88t0tjs4hW1-8" value="" style="endArrow=classic;html=1;rounded=0;exitX=0.5;exitY=1;exitDx=0;exitDy=0;" parent="1" source="2Z_EOnFNv88t0tjs4hW1-3" edge="1">
                    <mxGeometry width="50" height="50" relative="1" as="geometry">
                        <mxPoint x="340" y="-970" as="sourcePoint"/>
                        <mxPoint x="290" y="-950" as="targetPoint"/>
                    </mxGeometry>
                </mxCell>
                <mxCell id="2Z_EOnFNv88t0tjs4hW1-9" value="Add&lt;br style=&quot;border-color: var(--border-color);&quot;&gt;Edges" style="edgeLabel;html=1;align=center;verticalAlign=middle;resizable=0;points=[];" parent="2Z_EOnFNv88t0tjs4hW1-8" vertex="1" connectable="0">
                    <mxGeometry x="-0.3067" y="-2" relative="1" as="geometry">
                        <mxPoint as="offset"/>
                    </mxGeometry>
                </mxCell>
                <mxCell id="eX00JoSGoeSIzR9DWNT0-5" value="" style="edgeStyle=orthogonalEdgeStyle;rounded=0;orthogonalLoop=1;jettySize=auto;html=1;fillColor=#dae8fc;strokeColor=#6c8ebf;" parent="1" source="eX00JoSGoeSIzR9DWNT0-2" target="2Z_EOnFNv88t0tjs4hW1-3" edge="1">
                    <mxGeometry relative="1" as="geometry"/>
                </mxCell>
                <mxCell id="eX00JoSGoeSIzR9DWNT0-2" value="进入&lt;br&gt;遍历" style="rounded=0;whiteSpace=wrap;html=1;" parent="1" vertex="1">
                    <mxGeometry x="260" y="-950" width="60" height="40" as="geometry"/>
                </mxCell>
                <mxCell id="eX00JoSGoeSIzR9DWNT0-3" value="G-&amp;gt;&lt;br&gt;vertexNum" style="rounded=0;whiteSpace=wrap;html=1;" parent="1" vertex="1">
                    <mxGeometry x="402" y="-950" width="60" height="40" as="geometry"/>
                </mxCell>
                <mxCell id="eX00JoSGoeSIzR9DWNT0-4" value="" style="endArrow=classic;html=1;rounded=0;entryX=1;entryY=0.5;entryDx=0;entryDy=0;fillColor=#f8cecc;strokeColor=#b85450;" parent="1" target="eX00JoSGoeSIzR9DWNT0-2" edge="1">
                    <mxGeometry width="50" height="50" relative="1" as="geometry">
                        <mxPoint x="400" y="-930" as="sourcePoint"/>
                        <mxPoint x="420" y="-950" as="targetPoint"/>
                    </mxGeometry>
                </mxCell>
                <mxCell id="eX00JoSGoeSIzR9DWNT0-6" value="后缀link&lt;br&gt;是否为空" style="rhombus;whiteSpace=wrap;html=1;" parent="1" vertex="1">
                    <mxGeometry x="250" y="-870" width="80" height="60" as="geometry"/>
                </mxCell>
                <mxCell id="eX00JoSGoeSIzR9DWNT0-7" value="" style="endArrow=classic;html=1;rounded=0;exitX=0.5;exitY=1;exitDx=0;exitDy=0;entryX=0.5;entryY=0;entryDx=0;entryDy=0;fillColor=#dae8fc;strokeColor=#6c8ebf;" parent="1" source="eX00JoSGoeSIzR9DWNT0-2" target="eX00JoSGoeSIzR9DWNT0-6" edge="1">
                    <mxGeometry width="50" height="50" relative="1" as="geometry">
                        <mxPoint x="370" y="-900" as="sourcePoint"/>
                        <mxPoint x="420" y="-950" as="targetPoint"/>
                    </mxGeometry>
                </mxCell>
                <mxCell id="eX00JoSGoeSIzR9DWNT0-8" value="judge" style="edgeLabel;html=1;align=center;verticalAlign=middle;resizable=0;points=[];" parent="eX00JoSGoeSIzR9DWNT0-7" vertex="1" connectable="0">
                    <mxGeometry x="-0.3333" y="1" relative="1" as="geometry">
                        <mxPoint as="offset"/>
                    </mxGeometry>
                </mxCell>
                <mxCell id="zpX0046NV7v9COuKDzSA-1" value="" style="endArrow=classic;html=1;rounded=0;exitX=0.5;exitY=1;exitDx=0;exitDy=0;fillColor=#dae8fc;strokeColor=#6c8ebf;" parent="1" source="eX00JoSGoeSIzR9DWNT0-6" edge="1">
                    <mxGeometry width="50" height="50" relative="1" as="geometry">
                        <mxPoint x="370" y="-900" as="sourcePoint"/>
                        <mxPoint x="290" y="-770" as="targetPoint"/>
                    </mxGeometry>
                </mxCell>
                <mxCell id="uXR4lONkSY18JL8LZaN8-2" value="是：&lt;br&gt;计数器统计" style="edgeLabel;html=1;align=center;verticalAlign=middle;resizable=0;points=[];" parent="zpX0046NV7v9COuKDzSA-1" vertex="1" connectable="0">
                    <mxGeometry x="-0.2778" y="1" relative="1" as="geometry">
                        <mxPoint as="offset"/>
                    </mxGeometry>
                </mxCell>
                <mxCell id="uXR4lONkSY18JL8LZaN8-1" value="outDegree&lt;br&gt;ZeroCount" style="rounded=0;whiteSpace=wrap;html=1;" parent="1" vertex="1">
                    <mxGeometry x="250" y="-770" width="80" height="40" as="geometry"/>
                </mxCell>
                <mxCell id="uXR4lONkSY18JL8LZaN8-3" value="" style="endArrow=classic;html=1;rounded=0;exitX=0;exitY=0.5;exitDx=0;exitDy=0;entryX=0;entryY=0.5;entryDx=0;entryDy=0;fillColor=#dae8fc;strokeColor=#6c8ebf;" parent="1" source="eX00JoSGoeSIzR9DWNT0-6" target="eX00JoSGoeSIzR9DWNT0-2" edge="1">
                    <mxGeometry width="50" height="50" relative="1" as="geometry">
                        <mxPoint x="370" y="-770" as="sourcePoint"/>
                        <mxPoint x="420" y="-820" as="targetPoint"/>
                        <Array as="points">
                            <mxPoint x="210" y="-840"/>
                            <mxPoint x="210" y="-930"/>
                        </Array>
                    </mxGeometry>
                </mxCell>
                <mxCell id="uXR4lONkSY18JL8LZaN8-4" value="否：&lt;br&gt;遍历下一个" style="edgeLabel;html=1;align=center;verticalAlign=middle;resizable=0;points=[];" parent="uXR4lONkSY18JL8LZaN8-3" vertex="1" connectable="0">
                    <mxGeometry x="0.0247" y="2" relative="1" as="geometry">
                        <mxPoint as="offset"/>
                    </mxGeometry>
                </mxCell>
                <mxCell id="uXR4lONkSY18JL8LZaN8-5" value="" style="endArrow=classic;html=1;rounded=0;exitX=0.5;exitY=1;exitDx=0;exitDy=0;fillColor=#dae8fc;strokeColor=#6c8ebf;" parent="1" source="uXR4lONkSY18JL8LZaN8-1" edge="1">
                    <mxGeometry width="50" height="50" relative="1" as="geometry">
                        <mxPoint x="370" y="-630" as="sourcePoint"/>
                        <mxPoint x="290" y="-690" as="targetPoint"/>
                    </mxGeometry>
                </mxCell>
                <mxCell id="uXR4lONkSY18JL8LZaN8-7" value="遍历结束，返回统计值" style="edgeLabel;html=1;align=center;verticalAlign=middle;resizable=0;points=[];" parent="uXR4lONkSY18JL8LZaN8-5" vertex="1" connectable="0">
                    <mxGeometry y="-2" relative="1" as="geometry">
                        <mxPoint as="offset"/>
                    </mxGeometry>
                </mxCell>
                <mxCell id="uXR4lONkSY18JL8LZaN8-9" value="outDegree&lt;br style=&quot;border-color: var(--border-color);&quot;&gt;ZeroCount" style="rounded=1;whiteSpace=wrap;html=1;" parent="1" vertex="1">
                    <mxGeometry x="250" y="-690" width="80" height="50" as="geometry"/>
                </mxCell>
            </root>
        </mxGraphModel>
    </diagram>
</mxfile>